<?xml version="1.0" encoding="UTF-8" standalone="no"?>
<!DOCTYPE svg PUBLIC "-//W3C//DTD SVG 1.1//EN" "http://www.w3.org/Graphics/SVG/1.1/DTD/svg11.dtd">
<svg xmlns="http://www.w3.org/2000/svg" version="1.1" viewBox="0.00 0.00 1987.00 1054.00">
<g stroke-width="2.00" fill="none" stroke-linecap="butt">
<path stroke="#f1848c" vector-effect="non-scaling-stroke" d="
  M 1078.81 281.47
  C 1080.42 287.21 1080.05 300.42 1071.88 301.91
  Q 1069.63 302.33 1064.20 301.05
  C 1052.18 298.23 1040.24 297.05 1027.92 298.69
  C 1007.80 301.36 982.29 308.59 979.54 332.75
  C 977.68 349.04 995.25 362.19 1010.00 361.60
  C 1027.06 360.92 1016.39 333.71 1030.76 337.20
  C 1040.34 339.53 1049.33 344.36 1058.19 348.51
  C 1084.12 360.68 1109.03 371.18 1137.50 367.43
  Q 1154.13 365.24 1167.31 352.54
  Q 1170.17 349.79 1173.03 347.07
  C 1175.78 344.46 1179.03 346.56 1181.94 348.56
  Q 1185.57 351.05 1193.67 359.09
  C 1205.98 371.29 1218.60 384.37 1231.98 394.55
  C 1271.71 424.76 1320.72 434.00 1369.86 434.69
  C 1378.63 434.81 1384.92 435.21 1392.25 437.26
  C 1415.59 443.80 1436.19 459.86 1447.69 481.35
  Q 1455.34 495.66 1460.22 508.76
  C 1467.40 528.02 1476.33 545.54 1487.87 562.24
  Q 1507.11 590.07 1530.90 614.13
  C 1541.47 624.83 1554.47 634.01 1566.61 643.33
  C 1569.32 645.41 1570.64 647.49 1570.75 650.76
  Q 1570.89 654.87 1570.27 662.50
  Q 1569.51 671.93 1571.45 689.25
  C 1574.26 714.22 1586.01 740.83 1615.76 740.53
  Q 1622.46 740.46 1622.17 733.76
  Q 1621.97 729.35 1621.70 713.39
  Q 1621.54 703.73 1625.39 695.06
  Q 1627.08 691.26 1627.14 689.16
  C 1627.30 682.56 1621.42 675.02 1618.00 669.52
  Q 1611.72 659.41 1610.14 647.75
  C 1609.58 643.57 1609.93 638.07 1609.45 633.75
  C 1608.20 622.42 1599.61 617.71 1590.92 612.09
  Q 1584.24 607.78 1579.97 601.10
  C 1573.46 590.90 1567.31 582.03 1567.67 569.25
  C 1568.74 530.88 1565.05 491.93 1553.23 455.26
  Q 1548.84 441.66 1543.96 434.32
  Q 1542.29 431.81 1534.70 422.78
  Q 1533.84 421.75 1532.90 419.38
  A 1.28 1.28 0.0 0 1 1532.87 418.49
  Q 1533.53 416.45 1534.82 415.56
  C 1551.07 404.36 1567.44 391.59 1578.32 374.84
  Q 1582.08 369.05 1586.97 357.52
  C 1597.04 333.80 1607.17 309.89 1620.10 287.56
  C 1628.13 273.70 1637.78 260.13 1649.60 251.35
  C 1659.72 243.84 1669.38 237.03 1680.82 231.59
  Q 1692.67 225.95 1704.15 219.58
  Q 1711.86 215.30 1714.67 213.17
  C 1726.38 204.28 1734.57 189.02 1733.10 173.61
  Q 1732.32 165.54 1726.54 159.96
  C 1716.06 149.86 1701.08 154.84 1690.09 160.71
  Q 1650.93 181.66 1626.64 218.84
  Q 1611.63 241.84 1601.15 267.24
  C 1593.84 284.94 1586.93 303.86 1578.35 320.34
  C 1566.88 342.35 1549.92 361.76 1528.72 375.40
  Q 1509.33 387.88 1486.49 388.18
  Q 1459.33 388.53 1430.96 376.74
  C 1398.27 363.16 1369.02 344.94 1342.21 321.94
  Q 1326.82 308.74 1305.44 290.06
  Q 1278.25 266.30 1247.12 243.87
  C 1216.04 221.46 1182.38 201.55 1145.99 189.11
  Q 1125.06 181.95 1103.00 180.26
  A 1.09 1.08 79.4 0 1 1102.11 179.64
  Q 1096.66 168.25 1089.82 158.22
  C 1086.42 153.25 1080.68 159.26 1078.31 162.06
  C 1075.54 165.34 1072.16 170.34 1068.22 172.13
  Q 1067.76 172.34 1067.28 172.16
  Q 1064.90 171.25 1063.26 169.25
  C 1059.77 165.00 1056.43 160.08 1052.06 156.72
  A 1.82 1.81 40.2 0 0 1049.63 156.92
  Q 1047.05 159.65 1045.28 163.03
  C 1041.18 170.88 1037.02 179.75 1030.23 185.62
  C 1026.63 188.73 1021.16 190.90 1017.08 193.33
  C 1007.57 199.00 1012.49 209.54 1006.05 216.93
  C 1000.90 222.84 990.60 226.00 991.51 235.72
  Q 992.22 243.29 999.02 247.74
  C 1004.57 251.38 1010.34 255.04 1014.93 259.73
  Q 1017.57 262.44 1020.87 266.13
  C 1023.84 269.45 1030.40 273.42 1035.25 272.41
  C 1041.92 271.02 1050.47 267.73 1056.99 268.57
  C 1064.26 269.51 1076.49 273.20 1078.81 281.47"
/>
<path stroke="#f1848c" vector-effect="non-scaling-stroke" d="
  M 646.68 830.00
  C 646.69 847.91 621.28 853.40 614.56 836.15
  Q 613.45 833.30 613.46 826.22
  Q 613.48 682.74 613.30 539.25
  Q 613.30 536.15 613.24 532.92
  Q 613.23 532.42 612.72 532.42
  L 515.97 532.47
  A 0.76 0.75 0.0 0 0 515.21 533.22
  Q 515.20 695.52 515.21 857.51
  Q 515.21 864.52 516.13 867.91
  C 518.67 877.30 525.75 885.00 534.87 888.06
  Q 539.36 889.57 549.80 889.58
  Q 629.06 889.67 708.33 889.60
  Q 717.90 889.59 719.67 889.35
  C 730.39 887.88 739.96 880.03 743.23 869.91
  Q 744.76 865.16 744.76 851.42
  Q 744.77 692.35 744.77 532.86
  Q 744.77 532.47 744.37 532.47
  L 647.06 532.46
  Q 646.78 532.46 646.78 532.73
  Q 646.60 681.50 646.68 830.00"
/>
<path stroke="#f1848c" vector-effect="non-scaling-stroke" d="
  M 350.76 799.85
  Q 400.75 799.65 450.75 799.65
  C 469.34 799.65 481.81 783.65 481.80 765.99
  Q 481.71 665.24 481.68 564.50
  C 481.67 550.82 473.11 538.13 460.17 534.02
  Q 455.30 532.47 443.18 532.47
  Q 347.92 532.46 252.54 532.47
  A 0.31 0.30 -0.0 0 0 252.23 532.77
  L 252.23 888.28
  A 1.31 1.30 -90.0 0 0 253.53 889.59
  L 349.53 889.63
  A 0.75 0.74 90.0 0 0 350.27 888.88
  L 350.29 800.32
  Q 350.30 799.85 350.76 799.85"
/>
<path stroke="#f1848c" vector-effect="non-scaling-stroke" d="
  M 1008.62 585.99
  C 1013.97 569.64 1040.01 571.93 1040.97 589.75
  Q 1041.18 593.77 1041.18 606.00
  Q 1041.14 747.52 1041.14 888.96
  A 0.64 0.64 0.0 0 0 1041.78 889.60
  L 1138.47 889.61
  A 0.74 0.73 0.8 0 0 1139.21 888.90
  Q 1139.29 886.47 1139.29 883.75
  Q 1139.29 724.50 1139.09 565.25
  Q 1139.06 544.82 1121.13 535.70
  Q 1114.78 532.47 1107.25 532.47
  Q 960.58 532.46 813.91 532.47
  Q 806.08 532.47 802.66 533.26
  C 791.97 535.73 783.11 544.24 779.92 554.55
  Q 778.45 559.27 778.46 569.60
  Q 778.47 722.55 778.40 875.50
  Q 778.39 882.50 778.55 889.36
  A 0.24 0.24 0.0 0 0 778.79 889.59
  L 875.75 889.61
  A 0.68 0.67 -90.0 0 0 876.42 888.93
  Q 876.35 742.36 876.43 595.52
  Q 876.43 588.84 877.30 586.06
  C 881.90 571.36 903.54 571.41 908.65 584.87
  Q 910.02 588.45 910.01 599.29
  Q 909.99 744.21 910.02 888.89
  A 0.71 0.71 0.0 0 0 910.73 889.60
  L 1006.98 889.59
  A 0.75 0.74 -0.0 0 0 1007.72 888.86
  Q 1007.92 877.14 1007.91 865.25
  Q 1007.75 729.67 1007.77 594.10
  Q 1007.77 588.60 1008.62 585.99"
/>
<path stroke="#f1848c" vector-effect="non-scaling-stroke" d="
  M 1304.27 800.52
  Q 1304.47 805.01 1304.45 809.50
  Q 1304.22 847.12 1304.28 884.75
  Q 1304.28 886.97 1304.53 888.96
  A 0.74 0.73 86.5 0 0 1305.26 889.61
  L 1401.25 889.60
  A 1.24 1.23 0.0 0 0 1402.49 888.37
  Q 1402.57 728.72 1402.50 569.11
  Q 1402.50 560.54 1401.47 556.48
  C 1398.81 546.02 1390.73 537.21 1380.51 534.02
  Q 1375.56 532.47 1363.32 532.47
  Q 1283.66 532.47 1204.00 532.71
  C 1190.16 532.75 1178.28 541.73 1174.35 554.60
  Q 1172.79 559.69 1172.79 573.55
  Q 1172.83 731.36 1172.80 888.90
  A 0.68 0.68 0.0 0 0 1173.48 889.58
  L 1269.71 889.63
  A 1.09 1.09 0.0 0 0 1270.80 888.54
  L 1270.81 800.52
  A 0.66 0.66 0.0 0 1 1271.48 799.86
  L 1303.75 800.01
  Q 1304.25 800.01 1304.27 800.52"
/>
<path stroke="#f1848c" vector-effect="non-scaling-stroke" d="
  M 1477.9992 891.2050
  A 43.90 43.79 88.5 0 0 1520.6250 846.1737
  A 43.90 43.79 88.5 0 0 1475.7008 803.4350
  A 43.90 43.79 88.5 0 0 1433.0750 848.4663
  A 43.90 43.79 88.5 0 0 1477.9992 891.2050"
/>
<path stroke="#f1848c" vector-effect="non-scaling-stroke" d="
  M 350.30 575.26
  L 350.30 755.30
  A 0.61 0.61 0.0 0 0 350.91 755.91
  L 365.77 755.91
  A 18.39 18.13 90.0 0 0 383.90 737.52
  L 383.90 593.04
  A 18.39 18.13 -90.0 0 0 365.77 574.65
  L 350.91 574.65
  A 0.61 0.61 0.0 0 0 350.30 575.26"
/>
<path stroke="#f1848c" vector-effect="non-scaling-stroke" d="
  M 1271.50 755.79
  L 1303.66 755.79
  A 0.63 0.63 0.0 0 0 1304.29 755.16
  L 1304.29 591.92
  A 16.91 16.49 90.0 0 0 1287.80 575.01
  L 1287.36 575.01
  A 16.91 16.49 -90.0 0 0 1270.87 591.92
  L 1270.87 755.16
  A 0.63 0.63 0.0 0 0 1271.50 755.79"
/>
<path stroke="#f1848c" vector-effect="non-scaling-stroke" d="
  M 1478.0126 885.0414
  A 37.65 36.75 88.2 0 0 1513.5619 846.2557
  A 37.65 36.75 88.2 0 0 1475.6474 809.7786
  A 37.65 36.75 88.2 0 0 1440.0981 848.5643
  A 37.65 36.75 88.2 0 0 1478.0126 885.0414"
/>
<path stroke="#f1848c" vector-effect="non-scaling-stroke" d="
  M 1471.14 853.37
  A 0.23 0.23 0.0 0 1 1471.30 853.46
  C 1474.54 857.10 1477.39 861.60 1480.07 865.03
  Q 1482.69 868.40 1484.83 871.55
  Q 1485.60 872.68 1486.96 872.68
  L 1496.27 872.70
  A 0.68 0.68 0.0 0 0 1496.82 871.62
  L 1482.40 852.06
  A 0.76 0.76 0.0 0 1 1482.81 850.88
  C 1489.25 849.13 1492.65 841.68 1492.14 835.50
  C 1490.90 820.44 1472.15 822.01 1461.44 822.13
  Q 1461.21 822.14 1461.21 822.37
  L 1461.23 872.25
  Q 1461.23 872.77 1461.75 872.76
  L 1470.18 872.70
  Q 1470.59 872.70 1470.60 872.29
  Q 1470.85 863.10 1470.69 854.00
  Q 1470.68 853.32 1471.14 853.37"
/>
<path stroke="#f1848c" vector-effect="non-scaling-stroke" d="
  M 1470.79 830.90
  L 1470.63 844.26
  A 0.27 0.27 0.0 0 0 1470.90 844.53
  L 1473.94 844.57
  A 8.77 6.17 0.7 0 0 1482.78 838.50
  L 1482.80 836.94
  A 8.77 6.17 0.7 0 0 1474.11 830.67
  L 1471.07 830.63
  A 0.27 0.27 0.0 0 0 1470.79 830.90"
/>
</g>
<path fill="#e30919" d="
  M 0.00 0.00
  L 1987.00 0.00
  L 1987.00 1053.29
  L 0.00 1053.16
  L 0.00 0.00
  Z
  M 1078.81 281.47
  C 1080.42 287.21 1080.05 300.42 1071.88 301.91
  Q 1069.63 302.33 1064.20 301.05
  C 1052.18 298.23 1040.24 297.05 1027.92 298.69
  C 1007.80 301.36 982.29 308.59 979.54 332.75
  C 977.68 349.04 995.25 362.19 1010.00 361.60
  C 1027.06 360.92 1016.39 333.71 1030.76 337.20
  C 1040.34 339.53 1049.33 344.36 1058.19 348.51
  C 1084.12 360.68 1109.03 371.18 1137.50 367.43
  Q 1154.13 365.24 1167.31 352.54
  Q 1170.17 349.79 1173.03 347.07
  C 1175.78 344.46 1179.03 346.56 1181.94 348.56
  Q 1185.57 351.05 1193.67 359.09
  C 1205.98 371.29 1218.60 384.37 1231.98 394.55
  C 1271.71 424.76 1320.72 434.00 1369.86 434.69
  C 1378.63 434.81 1384.92 435.21 1392.25 437.26
  C 1415.59 443.80 1436.19 459.86 1447.69 481.35
  Q 1455.34 495.66 1460.22 508.76
  C 1467.40 528.02 1476.33 545.54 1487.87 562.24
  Q 1507.11 590.07 1530.90 614.13
  C 1541.47 624.83 1554.47 634.01 1566.61 643.33
  C 1569.32 645.41 1570.64 647.49 1570.75 650.76
  Q 1570.89 654.87 1570.27 662.50
  Q 1569.51 671.93 1571.45 689.25
  C 1574.26 714.22 1586.01 740.83 1615.76 740.53
  Q 1622.46 740.46 1622.17 733.76
  Q 1621.97 729.35 1621.70 713.39
  Q 1621.54 703.73 1625.39 695.06
  Q 1627.08 691.26 1627.14 689.16
  C 1627.30 682.56 1621.42 675.02 1618.00 669.52
  Q 1611.72 659.41 1610.14 647.75
  C 1609.58 643.57 1609.93 638.07 1609.45 633.75
  C 1608.20 622.42 1599.61 617.71 1590.92 612.09
  Q 1584.24 607.78 1579.97 601.10
  C 1573.46 590.90 1567.31 582.03 1567.67 569.25
  C 1568.74 530.88 1565.05 491.93 1553.23 455.26
  Q 1548.84 441.66 1543.96 434.32
  Q 1542.29 431.81 1534.70 422.78
  Q 1533.84 421.75 1532.90 419.38
  A 1.28 1.28 0.0 0 1 1532.87 418.49
  Q 1533.53 416.45 1534.82 415.56
  C 1551.07 404.36 1567.44 391.59 1578.32 374.84
  Q 1582.08 369.05 1586.97 357.52
  C 1597.04 333.80 1607.17 309.89 1620.10 287.56
  C 1628.13 273.70 1637.78 260.13 1649.60 251.35
  C 1659.72 243.84 1669.38 237.03 1680.82 231.59
  Q 1692.67 225.95 1704.15 219.58
  Q 1711.86 215.30 1714.67 213.17
  C 1726.38 204.28 1734.57 189.02 1733.10 173.61
  Q 1732.32 165.54 1726.54 159.96
  C 1716.06 149.86 1701.08 154.84 1690.09 160.71
  Q 1650.93 181.66 1626.64 218.84
  Q 1611.63 241.84 1601.15 267.24
  C 1593.84 284.94 1586.93 303.86 1578.35 320.34
  C 1566.88 342.35 1549.92 361.76 1528.72 375.40
  Q 1509.33 387.88 1486.49 388.18
  Q 1459.33 388.53 1430.96 376.74
  C 1398.27 363.16 1369.02 344.94 1342.21 321.94
  Q 1326.82 308.74 1305.44 290.06
  Q 1278.25 266.30 1247.12 243.87
  C 1216.04 221.46 1182.38 201.55 1145.99 189.11
  Q 1125.06 181.95 1103.00 180.26
  A 1.09 1.08 79.4 0 1 1102.11 179.64
  Q 1096.66 168.25 1089.82 158.22
  C 1086.42 153.25 1080.68 159.26 1078.31 162.06
  C 1075.54 165.34 1072.16 170.34 1068.22 172.13
  Q 1067.76 172.34 1067.28 172.16
  Q 1064.90 171.25 1063.26 169.25
  C 1059.77 165.00 1056.43 160.08 1052.06 156.72
  A 1.82 1.81 40.2 0 0 1049.63 156.92
  Q 1047.05 159.65 1045.28 163.03
  C 1041.18 170.88 1037.02 179.75 1030.23 185.62
  C 1026.63 188.73 1021.16 190.90 1017.08 193.33
  C 1007.57 199.00 1012.49 209.54 1006.05 216.93
  C 1000.90 222.84 990.60 226.00 991.51 235.72
  Q 992.22 243.29 999.02 247.74
  C 1004.57 251.38 1010.34 255.04 1014.93 259.73
  Q 1017.57 262.44 1020.87 266.13
  C 1023.84 269.45 1030.40 273.42 1035.25 272.41
  C 1041.92 271.02 1050.47 267.73 1056.99 268.57
  C 1064.26 269.51 1076.49 273.20 1078.81 281.47
  Z
  M 646.68 830.00
  C 646.69 847.91 621.28 853.40 614.56 836.15
  Q 613.45 833.30 613.46 826.22
  Q 613.48 682.74 613.30 539.25
  Q 613.30 536.15 613.24 532.92
  Q 613.23 532.42 612.72 532.42
  L 515.97 532.47
  A 0.76 0.75 0.0 0 0 515.21 533.22
  Q 515.20 695.52 515.21 857.51
  Q 515.21 864.52 516.13 867.91
  C 518.67 877.30 525.75 885.00 534.87 888.06
  Q 539.36 889.57 549.80 889.58
  Q 629.06 889.67 708.33 889.60
  Q 717.90 889.59 719.67 889.35
  C 730.39 887.88 739.96 880.03 743.23 869.91
  Q 744.76 865.16 744.76 851.42
  Q 744.77 692.35 744.77 532.86
  Q 744.77 532.47 744.37 532.47
  L 647.06 532.46
  Q 646.78 532.46 646.78 532.73
  Q 646.60 681.50 646.68 830.00
  Z
  M 350.76 799.85
  Q 400.75 799.65 450.75 799.65
  C 469.34 799.65 481.81 783.65 481.80 765.99
  Q 481.71 665.24 481.68 564.50
  C 481.67 550.82 473.11 538.13 460.17 534.02
  Q 455.30 532.47 443.18 532.47
  Q 347.92 532.46 252.54 532.47
  A 0.31 0.30 -0.0 0 0 252.23 532.77
  L 252.23 888.28
  A 1.31 1.30 -90.0 0 0 253.53 889.59
  L 349.53 889.63
  A 0.75 0.74 90.0 0 0 350.27 888.88
  L 350.29 800.32
  Q 350.30 799.85 350.76 799.85
  Z
  M 1008.62 585.99
  C 1013.97 569.64 1040.01 571.93 1040.97 589.75
  Q 1041.18 593.77 1041.18 606.00
  Q 1041.14 747.52 1041.14 888.96
  A 0.64 0.64 0.0 0 0 1041.78 889.60
  L 1138.47 889.61
  A 0.74 0.73 0.8 0 0 1139.21 888.90
  Q 1139.29 886.47 1139.29 883.75
  Q 1139.29 724.50 1139.09 565.25
  Q 1139.06 544.82 1121.13 535.70
  Q 1114.78 532.47 1107.25 532.47
  Q 960.58 532.46 813.91 532.47
  Q 806.08 532.47 802.66 533.26
  C 791.97 535.73 783.11 544.24 779.92 554.55
  Q 778.45 559.27 778.46 569.60
  Q 778.47 722.55 778.40 875.50
  Q 778.39 882.50 778.55 889.36
  A 0.24 0.24 0.0 0 0 778.79 889.59
  L 875.75 889.61
  A 0.68 0.67 -90.0 0 0 876.42 888.93
  Q 876.35 742.36 876.43 595.52
  Q 876.43 588.84 877.30 586.06
  C 881.90 571.36 903.54 571.41 908.65 584.87
  Q 910.02 588.45 910.01 599.29
  Q 909.99 744.21 910.02 888.89
  A 0.71 0.71 0.0 0 0 910.73 889.60
  L 1006.98 889.59
  A 0.75 0.74 -0.0 0 0 1007.72 888.86
  Q 1007.92 877.14 1007.91 865.25
  Q 1007.75 729.67 1007.77 594.10
  Q 1007.77 588.60 1008.62 585.99
  Z
  M 1304.27 800.52
  Q 1304.47 805.01 1304.45 809.50
  Q 1304.22 847.12 1304.28 884.75
  Q 1304.28 886.97 1304.53 888.96
  A 0.74 0.73 86.5 0 0 1305.26 889.61
  L 1401.25 889.60
  A 1.24 1.23 0.0 0 0 1402.49 888.37
  Q 1402.57 728.72 1402.50 569.11
  Q 1402.50 560.54 1401.47 556.48
  C 1398.81 546.02 1390.73 537.21 1380.51 534.02
  Q 1375.56 532.47 1363.32 532.47
  Q 1283.66 532.47 1204.00 532.71
  C 1190.16 532.75 1178.28 541.73 1174.35 554.60
  Q 1172.79 559.69 1172.79 573.55
  Q 1172.83 731.36 1172.80 888.90
  A 0.68 0.68 0.0 0 0 1173.48 889.58
  L 1269.71 889.63
  A 1.09 1.09 0.0 0 0 1270.80 888.54
  L 1270.81 800.52
  A 0.66 0.66 0.0 0 1 1271.48 799.86
  L 1303.75 800.01
  Q 1304.25 800.01 1304.27 800.52
  Z
  M 1477.9992 891.2050
  A 43.90 43.79 88.5 0 0 1520.6250 846.1737
  A 43.90 43.79 88.5 0 0 1475.7008 803.4350
  A 43.90 43.79 88.5 0 0 1433.0750 848.4663
  A 43.90 43.79 88.5 0 0 1477.9992 891.2050
  Z"
/>
<path fill="#ffffff" d="
  M 1071.88 301.91
  C 1080.05 300.42 1080.42 287.21 1078.81 281.47
  C 1076.49 273.20 1064.26 269.51 1056.99 268.57
  C 1050.47 267.73 1041.92 271.02 1035.25 272.41
  C 1030.40 273.42 1023.84 269.45 1020.87 266.13
  Q 1017.57 262.44 1014.93 259.73
  C 1010.34 255.04 1004.57 251.38 999.02 247.74
  Q 992.22 243.29 991.51 235.72
  C 990.60 226.00 1000.90 222.84 1006.05 216.93
  C 1012.49 209.54 1007.57 199.00 1017.08 193.33
  C 1021.16 190.90 1026.63 188.73 1030.23 185.62
  C 1037.02 179.75 1041.18 170.88 1045.28 163.03
  Q 1047.05 159.65 1049.63 156.92
  A 1.82 1.81 40.2 0 1 1052.06 156.72
  C 1056.43 160.08 1059.77 165.00 1063.26 169.25
  Q 1064.90 171.25 1067.28 172.16
  Q 1067.76 172.34 1068.22 172.13
  C 1072.16 170.34 1075.54 165.34 1078.31 162.06
  C 1080.68 159.26 1086.42 153.25 1089.82 158.22
  Q 1096.66 168.25 1102.11 179.64
  A 1.09 1.08 79.4 0 0 1103.00 180.26
  Q 1125.06 181.95 1145.99 189.11
  C 1182.38 201.55 1216.04 221.46 1247.12 243.87
  Q 1278.25 266.30 1305.44 290.06
  Q 1326.82 308.74 1342.21 321.94
  C 1369.02 344.94 1398.27 363.16 1430.96 376.74
  Q 1459.33 388.53 1486.49 388.18
  Q 1509.33 387.88 1528.72 375.40
  C 1549.92 361.76 1566.88 342.35 1578.35 320.34
  C 1586.93 303.86 1593.84 284.94 1601.15 267.24
  Q 1611.63 241.84 1626.64 218.84
  Q 1650.93 181.66 1690.09 160.71
  C 1701.08 154.84 1716.06 149.86 1726.54 159.96
  Q 1732.32 165.54 1733.10 173.61
  C 1734.57 189.02 1726.38 204.28 1714.67 213.17
  Q 1711.86 215.30 1704.15 219.58
  Q 1692.67 225.95 1680.82 231.59
  C 1669.38 237.03 1659.72 243.84 1649.60 251.35
  C 1637.78 260.13 1628.13 273.70 1620.10 287.56
  C 1607.17 309.89 1597.04 333.80 1586.97 357.52
  Q 1582.08 369.05 1578.32 374.84
  C 1567.44 391.59 1551.07 404.36 1534.82 415.56
  Q 1533.53 416.45 1532.87 418.49
  A 1.28 1.28 0.0 0 0 1532.90 419.38
  Q 1533.84 421.75 1534.70 422.78
  Q 1542.29 431.81 1543.96 434.32
  Q 1548.84 441.66 1553.23 455.26
  C 1565.05 491.93 1568.74 530.88 1567.67 569.25
  C 1567.31 582.03 1573.46 590.90 1579.97 601.10
  Q 1584.24 607.78 1590.92 612.09
  C 1599.61 617.71 1608.20 622.42 1609.45 633.75
  C 1609.93 638.07 1609.58 643.57 1610.14 647.75
  Q 1611.72 659.41 1618.00 669.52
  C 1621.42 675.02 1627.30 682.56 1627.14 689.16
  Q 1627.08 691.26 1625.39 695.06
  Q 1621.54 703.73 1621.70 713.39
  Q 1621.97 729.35 1622.17 733.76
  Q 1622.46 740.46 1615.76 740.53
  C 1586.01 740.83 1574.26 714.22 1571.45 689.25
  Q 1569.51 671.93 1570.27 662.50
  Q 1570.89 654.87 1570.75 650.76
  C 1570.64 647.49 1569.32 645.41 1566.61 643.33
  C 1554.47 634.01 1541.47 624.83 1530.90 614.13
  Q 1507.11 590.07 1487.87 562.24
  C 1476.33 545.54 1467.40 528.02 1460.22 508.76
  Q 1455.34 495.66 1447.69 481.35
  C 1436.19 459.86 1415.59 443.80 1392.25 437.26
  C 1384.92 435.21 1378.63 434.81 1369.86 434.69
  C 1320.72 434.00 1271.71 424.76 1231.98 394.55
  C 1218.60 384.37 1205.98 371.29 1193.67 359.09
  Q 1185.57 351.05 1181.94 348.56
  C 1179.03 346.56 1175.78 344.46 1173.03 347.07
  Q 1170.17 349.79 1167.31 352.54
  Q 1154.13 365.24 1137.50 367.43
  C 1109.03 371.18 1084.12 360.68 1058.19 348.51
  C 1049.33 344.36 1040.34 339.53 1030.76 337.20
  C 1016.39 333.71 1027.06 360.92 1010.00 361.60
  C 995.25 362.19 977.68 349.04 979.54 332.75
  C 982.29 308.59 1007.80 301.36 1027.92 298.69
  C 1040.24 297.05 1052.18 298.23 1064.20 301.05
  Q 1069.63 302.33 1071.88 301.91
  Z"
/>
<path fill="#ffffff" d="
  M 614.56 836.15
  C 621.28 853.40 646.69 847.91 646.68 830.00
  Q 646.60 681.50 646.78 532.73
  Q 646.78 532.46 647.06 532.46
  L 744.37 532.47
  Q 744.77 532.47 744.77 532.86
  Q 744.77 692.35 744.76 851.42
  Q 744.76 865.16 743.23 869.91
  C 739.96 880.03 730.39 887.88 719.67 889.35
  Q 717.90 889.59 708.33 889.60
  Q 629.06 889.67 549.80 889.58
  Q 539.36 889.57 534.87 888.06
  C 525.75 885.00 518.67 877.30 516.13 867.91
  Q 515.21 864.52 515.21 857.51
  Q 515.20 695.52 515.21 533.22
  A 0.76 0.75 -0.0 0 1 515.97 532.47
  L 612.72 532.42
  Q 613.23 532.42 613.24 532.92
  Q 613.30 536.15 613.30 539.25
  Q 613.48 682.74 613.46 826.22
  Q 613.45 833.30 614.56 836.15
  Z"
/>
<path fill="#ffffff" d="
  M 350.29 800.32
  L 350.27 888.88
  A 0.75 0.74 90.0 0 1 349.53 889.63
  L 253.53 889.59
  A 1.31 1.30 -90.0 0 1 252.23 888.28
  L 252.23 532.77
  A 0.31 0.30 -0.0 0 1 252.54 532.47
  Q 347.92 532.46 443.18 532.47
  Q 455.30 532.47 460.17 534.02
  C 473.11 538.13 481.67 550.82 481.68 564.50
  Q 481.71 665.24 481.80 765.99
  C 481.81 783.65 469.34 799.65 450.75 799.65
  Q 400.75 799.65 350.76 799.85
  Q 350.30 799.85 350.29 800.32
  Z
  M 350.30 575.26
  L 350.30 755.30
  A 0.61 0.61 0.0 0 0 350.91 755.91
  L 365.77 755.91
  A 18.39 18.13 90.0 0 0 383.90 737.52
  L 383.90 593.04
  A 18.39 18.13 -90.0 0 0 365.77 574.65
  L 350.91 574.65
  A 0.61 0.61 0.0 0 0 350.30 575.26
  Z"
/>
<path fill="#ffffff" d="
  M 1040.97 589.75
  C 1040.01 571.93 1013.97 569.64 1008.62 585.99
  Q 1007.77 588.60 1007.77 594.10
  Q 1007.75 729.67 1007.91 865.25
  Q 1007.92 877.14 1007.72 888.86
  A 0.75 0.74 -0.0 0 1 1006.98 889.59
  L 910.73 889.60
  A 0.71 0.71 0.0 0 1 910.02 888.89
  Q 909.99 744.21 910.01 599.29
  Q 910.02 588.45 908.65 584.87
  C 903.54 571.41 881.90 571.36 877.30 586.06
  Q 876.43 588.84 876.43 595.52
  Q 876.35 742.36 876.42 888.93
  A 0.68 0.67 -90.0 0 1 875.75 889.61
  L 778.79 889.59
  A 0.24 0.24 0.0 0 1 778.55 889.36
  Q 778.39 882.50 778.40 875.50
  Q 778.47 722.55 778.46 569.60
  Q 778.45 559.27 779.92 554.55
  C 783.11 544.24 791.97 535.73 802.66 533.26
  Q 806.08 532.47 813.91 532.47
  Q 960.58 532.46 1107.25 532.47
  Q 1114.78 532.47 1121.13 535.70
  Q 1139.06 544.82 1139.09 565.25
  Q 1139.29 724.50 1139.29 883.75
  Q 1139.29 886.47 1139.21 888.90
  A 0.74 0.73 0.8 0 1 1138.47 889.61
  L 1041.78 889.60
  A 0.64 0.64 0.0 0 1 1041.14 888.96
  Q 1041.14 747.52 1041.18 606.00
  Q 1041.18 593.77 1040.97 589.75
  Z"
/>
<path fill="#ffffff" d="
  M 1303.75 800.01
  L 1271.48 799.86
  A 0.66 0.66 0.0 0 0 1270.81 800.52
  L 1270.80 888.54
  A 1.09 1.09 0.0 0 1 1269.71 889.63
  L 1173.48 889.58
  A 0.68 0.68 0.0 0 1 1172.80 888.90
  Q 1172.83 731.36 1172.79 573.55
  Q 1172.79 559.69 1174.35 554.60
  C 1178.28 541.73 1190.16 532.75 1204.00 532.71
  Q 1283.66 532.47 1363.32 532.47
  Q 1375.56 532.47 1380.51 534.02
  C 1390.73 537.21 1398.81 546.02 1401.47 556.48
  Q 1402.50 560.54 1402.50 569.11
  Q 1402.57 728.72 1402.49 888.37
  A 1.24 1.23 0.0 0 1 1401.25 889.60
  L 1305.26 889.61
  A 0.74 0.73 86.5 0 1 1304.53 888.96
  Q 1304.28 886.97 1304.28 884.75
  Q 1304.22 847.12 1304.45 809.50
  Q 1304.47 805.01 1304.27 800.52
  Q 1304.25 800.01 1303.75 800.01
  Z
  M 1271.50 755.79
  L 1303.66 755.79
  A 0.63 0.63 0.0 0 0 1304.29 755.16
  L 1304.29 591.92
  A 16.91 16.49 90.0 0 0 1287.80 575.01
  L 1287.36 575.01
  A 16.91 16.49 -90.0 0 0 1270.87 591.92
  L 1270.87 755.16
  A 0.63 0.63 0.0 0 0 1271.50 755.79
  Z"
/>
<path fill="#e30919" d="
  M 350.30 575.26
  A 0.61 0.61 0.0 0 1 350.91 574.65
  L 365.77 574.65
  A 18.39 18.13 -90.0 0 1 383.90 593.04
  L 383.90 737.52
  A 18.39 18.13 -90.0 0 1 365.77 755.91
  L 350.91 755.91
  A 0.61 0.61 0.0 0 1 350.30 755.30
  L 350.30 575.26
  Z"
/>
<path fill="#e30919" d="
  M 1271.50 755.79
  A 0.63 0.63 0.0 0 1 1270.87 755.16
  L 1270.87 591.92
  A 16.91 16.49 -90.0 0 1 1287.36 575.01
  L 1287.80 575.01
  A 16.91 16.49 -90.0 0 1 1304.29 591.92
  L 1304.29 755.16
  A 0.63 0.63 0.0 0 1 1303.66 755.79
  L 1271.50 755.79
  Z"
/>
<path fill="#ffffff" d="
  M 1477.9992 891.2050
  A 43.90 43.79 88.5 0 1 1433.0750 848.4663
  A 43.90 43.79 88.5 0 1 1475.7008 803.4350
  A 43.90 43.79 88.5 0 1 1520.6250 846.1737
  A 43.90 43.79 88.5 0 1 1477.9992 891.2050
  Z
  M 1478.0126 885.0414
  A 37.65 36.75 88.2 0 0 1513.5619 846.2557
  A 37.65 36.75 88.2 0 0 1475.6474 809.7786
  A 37.65 36.75 88.2 0 0 1440.0981 848.5643
  A 37.65 36.75 88.2 0 0 1478.0126 885.0414
  Z"
/>
<path fill="#e30919" d="
  M 1478.0126 885.0414
  A 37.65 36.75 88.2 0 1 1440.0981 848.5643
  A 37.65 36.75 88.2 0 1 1475.6474 809.7786
  A 37.65 36.75 88.2 0 1 1513.5619 846.2557
  A 37.65 36.75 88.2 0 1 1478.0126 885.0414
  Z
  M 1471.14 853.37
  A 0.23 0.23 0.0 0 1 1471.30 853.46
  C 1474.54 857.10 1477.39 861.60 1480.07 865.03
  Q 1482.69 868.40 1484.83 871.55
  Q 1485.60 872.68 1486.96 872.68
  L 1496.27 872.70
  A 0.68 0.68 0.0 0 0 1496.82 871.62
  L 1482.40 852.06
  A 0.76 0.76 0.0 0 1 1482.81 850.88
  C 1489.25 849.13 1492.65 841.68 1492.14 835.50
  C 1490.90 820.44 1472.15 822.01 1461.44 822.13
  Q 1461.21 822.14 1461.21 822.37
  L 1461.23 872.25
  Q 1461.23 872.77 1461.75 872.76
  L 1470.18 872.70
  Q 1470.59 872.70 1470.60 872.29
  Q 1470.85 863.10 1470.69 854.00
  Q 1470.68 853.32 1471.14 853.37
  Z"
/>
<path fill="#ffffff" d="
  M 1471.14 853.37
  Q 1470.68 853.32 1470.69 854.00
  Q 1470.85 863.10 1470.60 872.29
  Q 1470.59 872.70 1470.18 872.70
  L 1461.75 872.76
  Q 1461.23 872.77 1461.23 872.25
  L 1461.21 822.37
  Q 1461.21 822.14 1461.44 822.13
  C 1472.15 822.01 1490.90 820.44 1492.14 835.50
  C 1492.65 841.68 1489.25 849.13 1482.81 850.88
  A 0.76 0.76 0.0 0 0 1482.40 852.06
  L 1496.82 871.62
  A 0.68 0.68 0.0 0 1 1496.27 872.70
  L 1486.96 872.68
  Q 1485.60 872.68 1484.83 871.55
  Q 1482.69 868.40 1480.07 865.03
  C 1477.39 861.60 1474.54 857.10 1471.30 853.46
  A 0.23 0.23 0.0 0 0 1471.14 853.37
  Z
  M 1470.79 830.90
  L 1470.63 844.26
  A 0.27 0.27 0.0 0 0 1470.90 844.53
  L 1473.94 844.57
  A 8.77 6.17 0.7 0 0 1482.78 838.50
  L 1482.80 836.94
  A 8.77 6.17 0.7 0 0 1474.11 830.67
  L 1471.07 830.63
  A 0.27 0.27 0.0 0 0 1470.79 830.90
  Z"
/>
<path fill="#e30919" d="
  M 1470.79 830.90
  A 0.27 0.27 0.0 0 1 1471.07 830.63
  L 1474.11 830.67
  A 8.77 6.17 0.7 0 1 1482.80 836.94
  L 1482.78 838.50
  A 8.77 6.17 0.7 0 1 1473.94 844.57
  L 1470.90 844.53
  A 0.27 0.27 0.0 0 1 1470.63 844.26
  L 1470.79 830.90
  Z"
/>
<path fill="#e30919" d="
  M 0.00 1053.85
  L 1985.92 1053.85
  Q 1986.00 1053.85 1985.99 1053.92
  Q 1985.99 1053.96 1985.98 1054.00
  L 0.00 1054.00
  Q 0.00 1053.92 0.00 1053.85
  Z"
/>
</svg>
